# This file uses centimeters as units for non-parametric coordinates.

mtllib CrayonBox.mtl
g default
v -3.200000 6.000000 0.750000
v -4.000000 6.000000 0.750000
v -0.800000 6.000001 0.750000
v 0.800000 6.000000 0.750000
v 3.200000 6.000000 0.750000
v 4.000000 6.000000 0.750000
v -3.200002 6.930419 1.376901
v -4.000000 6.930419 1.376901
v -0.800001 6.930420 1.376902
v 0.800000 6.930419 1.376902
v 3.199995 6.930419 1.376902
v 4.000001 6.930422 1.376904
v -3.200001 7.984518 -0.341811
v -4.000004 7.258184 0.842482
v -0.800000 8.474953 -1.141470
v 0.800000 8.474957 -1.141475
v 3.200006 7.984519 -0.341811
v 3.999994 7.258182 0.842481
v -4.000000 -5.999999 0.750000
v -3.200000 -6.000000 0.750000
v -3.200001 -4.000000 0.750000
v -4.000000 -4.000000 0.750000
v -4.000000 -6.000000 -0.750000
v -4.000000 -4.000000 -0.750000
v -3.200000 -6.000000 -0.750000
v -0.800000 -6.000000 0.750000
v -0.800000 -3.999999 0.750000
v -3.200000 -2.000000 0.750001
v -4.000000 -2.000000 0.750001
v -3.200000 -4.000000 -0.750000
v -4.000000 -2.000000 -0.750000
v -0.800000 -6.000000 -0.750000
v 0.800000 -6.000000 0.750000
v 0.800000 -4.000000 0.750000
v -0.800000 -2.000000 0.750000
v -3.200000 0.000000 0.750000
v -4.000000 0.000000 0.750000
v -3.200000 -2.000000 -0.750000
v -0.800000 -4.000000 -0.750000
v -4.000000 0.000000 -0.750000
v 0.800000 -6.000000 -0.750000
v 3.199997 -6.000000 0.750000
v 3.200003 -4.000000 0.750000
v 0.800003 -2.000000 0.750000
v -0.800003 0.000000 0.750000
v -3.200003 2.000000 0.750000
v -4.000003 2.000000 0.750000
v -3.199997 0.000000 -0.750000
v -0.799999 -2.000000 -0.750000
v 0.800001 -4.000000 -0.750000
v -3.999997 2.000000 -0.750000
v 3.199997 -6.000000 -0.750000
v 4.000003 -6.000000 0.750000
v 3.999997 -4.000000 0.750000
v 3.200001 -2.000000 0.750000
v 0.800000 0.000000 0.750000
v -0.800000 2.000000 0.750000
v -3.199999 4.000000 0.750000
v -3.999997 4.000000 0.750000
v -3.200003 2.000000 -0.750000
v -0.799997 0.000000 -0.750000
v 0.800001 -2.000000 -0.750000
v 3.199997 -4.000000 -0.750000
v -4.000000 4.000000 -0.750000
v 3.999997 -6.000000 -0.750000
v 3.999997 -4.000000 -0.750000
v 4.000000 -2.000000 0.750000
v 3.200001 0.000000 0.750000
v 0.800003 2.000000 0.750000
v -0.800003 4.000000 0.750000
v -3.199997 6.000000 0.750000
v -4.000000 6.000000 0.750000
v -3.200000 4.000000 -0.750000
v -0.800003 2.000000 -0.750000
v 0.799997 0.000000 -0.750000
v 3.200003 -2.000000 -0.750000
v -3.999997 6.000000 -0.750000
v 3.999997 -2.000000 -0.750000
v 4.000000 0.000000 0.750000
v 3.200001 2.000000 0.750000
v 0.800003 4.000000 0.750000
v -0.800003 6.000000 0.750000
v -3.557868 6.000000 -0.750000
v -3.385361 5.661425 -0.750000
v -3.283132 5.559191 -0.750000
v -3.200003 5.476058 -0.750000
v -0.800003 4.000000 -0.750000
v 0.800003 2.000000 -0.750000
v 3.200003 0.000000 -0.750000
v 4.000003 0.000000 -0.750000
v 3.999997 2.000000 0.750000
v 3.200000 4.000000 0.750000
v 0.800001 6.000000 0.750000
v -0.799997 4.063168 -0.750000
v -2.459615 4.735659 -0.750000
v -1.293089 4.141263 -0.750000
v -1.148789 4.118406 -0.750000
v -0.401142 4.000000 -0.750000
v -0.000002 3.936471 -0.750000
v 0.144466 3.959354 -0.750000
v 0.401121 4.000000 -0.750000
v 0.800003 4.000000 -0.750000
v 3.199997 2.000000 -0.750000
v 4.000000 2.000000 -0.750000
v 4.000000 4.000000 0.750000
v 3.200002 6.000000 0.750000
v 0.800004 4.063172 -0.750002
v 3.199999 4.000000 -0.750000
v 4.000003 4.000000 -0.750000
v 4.000000 6.000000 0.750000
v 3.200000 5.476072 -0.750000
v 1.293089 4.141266 -0.750000
v 1.423189 4.207555 -0.750000
v 2.459615 4.735642 -0.750000
v 2.562381 4.838417 -0.750000
v 4.000000 6.000000 -0.750000
v 3.557865 5.999999 -0.750000
v 3.385361 5.661444 -0.749999
v 3.450890 5.790050 -0.750000
vt 0.516700 0.157623
vt 0.583518 0.157623
vt 0.583518 0.256127
vt 0.516700 0.256127
vt 0.681793 0.157623
vt 0.681793 0.256127
vt 0.583518 0.354630
vt 0.516700 0.354630
vt 0.747310 0.157623
vt 0.747310 0.256127
vt 0.681793 0.354630
vt 0.583518 0.453134
vt 0.516700 0.453134
vt 0.845586 0.157623
vt 0.845586 0.256127
vt 0.747310 0.354630
vt 0.681793 0.453134
vt 0.583518 0.551638
vt 0.516700 0.551638
vt 0.878344 0.157623
vt 0.878344 0.256127
vt 0.845586 0.354630
vt 0.747310 0.453134
vt 0.681793 0.551638
vt 0.583518 0.650142
vt 0.516700 0.650142
vt 0.878344 0.354630
vt 0.845586 0.453134
vt 0.747310 0.551638
vt 0.681793 0.650142
vt 0.583518 0.748646
vt 0.515663 0.748646
vt 0.878344 0.453134
vt 0.845586 0.551638
vt 0.747310 0.650142
vt 0.681793 0.748646
vt 0.878344 0.551638
vt 0.845586 0.650142
vt 0.747310 0.748646
vt 0.878344 0.650142
vt 0.845586 0.748646
vt 0.878344 0.748646
vt 0.477426 0.157623
vt 0.331757 0.695556
vt 0.489335 0.668878
vt 0.477426 0.256127
vt 0.449870 0.610175
vt 0.477426 0.354630
vt 0.449962 0.695430
vt 0.477426 0.453134
vt 0.489363 0.695387
vt 0.477426 0.551638
vt 0.516851 0.830135
vt 0.477426 0.650142
vt 0.516871 0.814411
vt 0.476390 0.748646
vt 0.467194 0.139923
vt 0.431001 0.140038
vt 0.430888 0.098089
vt 0.467081 0.097974
vt 0.322421 0.140384
vt 0.322309 0.098434
vt 0.250035 0.140614
vt 0.249923 0.098665
vt 0.141456 0.140960
vt 0.141343 0.099010
vt 0.105263 0.141075
vt 0.105150 0.099126
vt 0.470745 0.240468
vt 0.434418 0.240468
vt 0.434418 0.140818
vt 0.470745 0.140818
vt 0.470745 0.340117
vt 0.434418 0.340117
vt 0.325436 0.240468
vt 0.325436 0.140818
vt 0.470745 0.439767
vt 0.434418 0.439767
vt 0.325436 0.340117
vt 0.252781 0.240468
vt 0.252781 0.140818
vt 0.470745 0.523647
vt 0.434418 0.523647
vt 0.325436 0.439767
vt 0.252781 0.340117
vt 0.143799 0.240468
vt 0.143799 0.140818
vt 0.470745 0.607648
vt 0.434418 0.607648
vt 0.325436 0.523647
vt 0.252781 0.439767
vt 0.143799 0.340117
vt 0.105440 0.240468
vt 0.105440 0.140818
vt 0.470745 0.691650
vt 0.450669 0.691650
vt 0.442835 0.677429
vt 0.438193 0.673136
vt 0.434418 0.669644
vt 0.325436 0.607648
vt 0.252781 0.523647
vt 0.143799 0.439767
vt 0.105440 0.340117
vt 0.325436 0.610302
vt 0.400798 0.638547
vt 0.347827 0.613582
vt 0.341274 0.612622
vt 0.307324 0.607648
vt 0.289109 0.604980
vt 0.282548 0.605941
vt 0.270894 0.607648
vt 0.252781 0.607648
vt 0.143799 0.523647
vt 0.105440 0.439767
vt 0.252781 0.610302
vt 0.143799 0.607648
vt 0.105440 0.523647
vt 0.143799 0.669645
vt 0.230390 0.613582
vt 0.224483 0.616366
vt 0.177420 0.638546
vt 0.172753 0.642862
vt 0.105440 0.607648
vt 0.127549 0.691650
vt 0.105440 0.691650
vt 0.135382 0.677430
vt 0.132407 0.682832
vt 0.057926 0.140818
vt 0.095320 0.669301
vt 0.095348 0.695810
vt 0.057926 0.240468
vt 0.134658 0.610513
vt 0.057926 0.340118
vt 0.134750 0.695768
vt 0.057926 0.439767
vt 0.252820 0.570720
vt 0.057926 0.523647
vt 0.252954 0.695641
vt 0.057926 0.607649
vt 0.331623 0.570636
vt 0.057926 0.691650
vt 0.871929 0.814554
vt 0.836424 0.814539
vt 0.836403 0.830263
vt 0.871909 0.830277
vt 0.729906 0.814497
vt 0.729886 0.830220
vt 0.658895 0.814468
vt 0.658875 0.830192
vt 0.552377 0.814425
vt 0.552357 0.830149
vt 0.470745 0.240468
vt 0.434418 0.240468
vt 0.434418 0.140818
vt 0.470745 0.340117
vt 0.434418 0.340117
vt 0.434418 0.240468
vt 0.434418 0.240468
vt 0.325436 0.240468
vt 0.325436 0.140818
vt 0.470745 0.439767
vt 0.434418 0.439767
vt 0.434418 0.340117
vt 0.434418 0.340117
vt 0.325436 0.340117
vt 0.325436 0.240468
vt 0.325436 0.240468
vt 0.252781 0.240468
vt 0.252781 0.140818
vt 0.470745 0.523647
vt 0.434418 0.523647
vt 0.434418 0.439767
vt 0.434418 0.439767
vt 0.325436 0.439767
vt 0.325436 0.340117
vt 0.325436 0.340117
vt 0.252781 0.340117
vt 0.252781 0.240468
vt 0.252781 0.240468
vt 0.143799 0.240468
vt 0.143799 0.140818
vt 0.105440 0.140818
vt 0.105440 0.240468
vt 0.057926 0.240468
vt 0.470745 0.607648
vt 0.434418 0.607648
vt 0.434418 0.523647
vt 0.434418 0.523647
vt 0.325436 0.523647
vt 0.325436 0.439767
vt 0.325436 0.439767
vt 0.252781 0.439767
vt 0.252781 0.340117
vt 0.252781 0.340117
vt 0.143799 0.340117
vt 0.143799 0.240468
vt 0.143799 0.240468
vt 0.105440 0.240468
vt 0.105440 0.240468
vt 0.105440 0.340117
vt 0.057926 0.340118
vt 0.434418 0.669644
vt 0.434418 0.607648
vt 0.434418 0.607648
vt 0.325436 0.607648
vt 0.325436 0.523647
vt 0.325436 0.523647
vt 0.252781 0.523647
vt 0.252781 0.439767
vt 0.252781 0.439767
vt 0.143799 0.439767
vt 0.143799 0.340117
vt 0.143799 0.340117
vt 0.105440 0.340117
vt 0.105440 0.340117
vt 0.105440 0.439767
vt 0.057926 0.439767
vt 0.325436 0.610302
vt 0.325436 0.607648
vt 0.325436 0.607648
vt 0.307324 0.607648
vt 0.270894 0.607648
vt 0.252781 0.607648
vt 0.252781 0.523647
vt 0.252781 0.523647
vt 0.143799 0.523647
vt 0.143799 0.439767
vt 0.143799 0.439767
vt 0.105440 0.439767
vt 0.105440 0.439767
vt 0.105440 0.523647
vt 0.057926 0.523647
vt 0.252781 0.610302
vt 0.252781 0.607648
vt 0.252781 0.607648
vt 0.143799 0.607648
vt 0.143799 0.523647
vt 0.143799 0.523647
vt 0.105440 0.523647
vt 0.105440 0.523647
vt 0.105440 0.607648
vt 0.057926 0.607649
vt 0.143799 0.669645
vt 0.143799 0.607648
vt 0.143799 0.607648
vt 0.105440 0.607648
vt 0.105440 0.607648
vt 0.105440 0.691650
vt 0.521047 0.157623
vt 0.584239 0.157623
vt 0.584239 0.256127
vt 0.521047 0.256127
vt 0.516700 0.256127
vt 0.477426 0.256127
vt 0.681793 0.157623
vt 0.681793 0.256127
vt 0.583518 0.256127
vt 0.521047 0.256127
vt 0.584239 0.256127
vt 0.584239 0.354630
vt 0.521047 0.354630
vt 0.516700 0.354630
vt 0.477426 0.354630
vt 0.747310 0.157623
vt 0.747310 0.256127
vt 0.681793 0.256127
vt 0.681793 0.256127
vt 0.681793 0.354630
vt 0.583518 0.354630
vt 0.521047 0.354630
vt 0.584239 0.354630
vt 0.584239 0.453134
vt 0.521047 0.453134
vt 0.516700 0.453134
vt 0.477426 0.453134
vt 0.845586 0.157623
vt 0.845586 0.256127
vt 0.747310 0.256127
vt 0.747310 0.256127
vt 0.747310 0.354630
vt 0.681793 0.354630
vt 0.681793 0.354630
vt 0.681793 0.453134
vt 0.583518 0.453134
vt 0.521047 0.453134
vt 0.584239 0.453134
vt 0.584239 0.551638
vt 0.521047 0.551638
vt 0.516700 0.551638
vt 0.477426 0.551638
vt 0.878344 0.256127
vt 0.845586 0.256127
vt 0.845586 0.256127
vt 0.845586 0.354630
vt 0.747310 0.354630
vt 0.747310 0.354630
vt 0.747310 0.453134
vt 0.681793 0.453134
vt 0.681793 0.453134
vt 0.681793 0.551638
vt 0.583518 0.551638
vt 0.521047 0.551638
vt 0.584239 0.551638
vt 0.584239 0.650142
vt 0.521047 0.650142
vt 0.516700 0.650142
vt 0.477426 0.650142
vt 0.878344 0.354630
vt 0.845586 0.354630
vt 0.845586 0.354630
vt 0.845586 0.453134
vt 0.747310 0.453134
vt 0.747310 0.453134
vt 0.747310 0.551638
vt 0.681793 0.551638
vt 0.681793 0.551638
vt 0.681793 0.650142
vt 0.583518 0.650142
vt 0.521047 0.650142
vt 0.584239 0.650142
vt 0.584239 0.748646
vt 0.519200 0.748646
vt 0.878344 0.453134
vt 0.845586 0.453134
vt 0.845586 0.453134
vt 0.845586 0.551638
vt 0.747310 0.551638
vt 0.747310 0.551638
vt 0.747310 0.650142
vt 0.681793 0.650142
vt 0.681793 0.650142
vt 0.681793 0.748646
vt 0.878344 0.551638
vt 0.845586 0.551638
vt 0.845586 0.551638
vt 0.845586 0.650142
vt 0.747310 0.650142
vt 0.747310 0.650142
vt 0.747310 0.748646
vt 0.878344 0.650142
vt 0.845586 0.650142
vt 0.845586 0.650142
vt 0.845586 0.748646
vt 0.431001 0.140038
vt 0.430888 0.098089
vt 0.322421 0.140384
vt 0.322309 0.098434
vt 0.250035 0.140614
vt 0.249923 0.098665
vt 0.141456 0.140960
vt 0.141343 0.099010
vt 0.449962 0.695430
vt 0.449870 0.610175
vt 0.331757 0.695556
vt 0.331623 0.570636
vt 0.252954 0.695641
vt 0.252820 0.570720
vt 0.134750 0.695768
vt 0.134658 0.610513
vn 0.000000 0.000000 1.000000
vn 0.000000 -0.000000 1.000000
vn 0.000000 -0.000000 1.000000
vn -0.000000 -0.000000 1.000000
vn -1.000000 0.000000 -0.000000
vn -1.000000 0.000000 -0.000000
vn -1.000000 0.000000 -0.000000
vn -1.000000 0.000000 -0.000000
vn -0.000001 -1.000000 0.000000
vn -0.000000 -1.000000 -0.000000
vn -0.000000 -1.000000 0.000000
vn -0.000001 -1.000000 0.000000
vn 0.000000 -0.000000 1.000000
vn 0.000000 -0.000000 1.000000
vn 0.000000 0.000000 1.000000
vn -0.000000 0.000000 1.000000
vn 0.000000 -0.000000 -1.000000
vn 0.000000 -0.000000 -1.000000
vn 0.000000 -0.000000 -1.000000
vn 0.000000 -0.000000 -1.000000
vn -1.000000 0.000000 -0.000000
vn -1.000000 0.000000 -0.000000
vn -0.000000 -1.000000 0.000000
vn 0.000000 -1.000000 -0.000000
vn 0.000000 -0.000000 1.000000
vn 0.000000 -0.000000 1.000000
vn 0.000000 0.000000 1.000000
vn 0.000000 0.000000 1.000000
vn -0.000000 0.000000 1.000000
vn 0.000000 0.000000 -1.000000
vn 0.000000 0.000000 -1.000000
vn 0.000000 -0.000000 -1.000000
vn 0.000000 -0.000000 -1.000000
vn -1.000000 0.000000 -0.000001
vn -1.000000 0.000000 -0.000001
vn -0.000000 -1.000000 0.000000
vn -0.000000 -1.000000 0.000000
vn 0.000000 0.000000 1.000000
vn 0.000000 0.000000 1.000000
vn 0.000000 0.000000 1.000000
vn 0.000000 0.000000 1.000000
vn 0.000000 0.000000 1.000000
vn 0.000000 0.000000 1.000000
vn 0.000000 0.000000 -1.000000
vn 0.000000 0.000000 -1.000000
vn 0.000000 0.000000 -1.000000
vn 0.000000 0.000000 -1.000000
vn 0.000000 0.000000 -1.000000
vn -1.000000 0.000000 -0.000001
vn -1.000000 0.000000 -0.000001
vn 0.000000 -1.000000 0.000000
vn 0.000000 -1.000000 0.000000
vn 0.000000 0.000000 1.000000
vn 0.000000 0.000000 1.000000
vn 0.000000 0.000000 1.000000
vn 0.000000 0.000000 1.000000
vn 0.000000 0.000000 1.000000
vn 0.000000 0.000000 1.000000
vn 0.000000 0.000000 1.000000
vn 0.000000 0.000000 -1.000000
vn 0.000000 0.000000 -1.000000
vn 0.000000 0.000000 -1.000000
vn 0.000000 0.000000 -1.000000
vn 0.000000 0.000000 -1.000000
vn 0.000000 0.000000 -1.000000
vn -1.000000 0.000000 -0.000000
vn -1.000000 0.000000 -0.000000
vn 0.000000 -1.000000 0.000000
vn 0.000000 -1.000000 0.000000
vn 1.000000 0.000001 -0.000002
vn 1.000000 0.000001 -0.000002
vn 1.000000 0.000000 -0.000001
vn 1.000000 0.000000 -0.000001
vn 0.000000 0.000000 1.000000
vn 0.000000 0.000000 1.000000
vn 0.000000 0.000000 1.000000
vn 0.000000 0.000000 1.000000
vn 0.000000 0.000000 1.000000
vn 0.000000 0.000000 1.000000
vn 0.000000 0.000000 -1.000000
vn 0.000000 0.000000 -1.000000
vn 0.000000 0.000000 -1.000000
vn 0.000000 0.000000 -1.000000
vn 0.000000 0.000000 -1.000000
vn 0.000000 0.000000 -1.000000
vn 0.000000 0.000000 -1.000000
vn -1.000000 0.000000 0.000000
vn -1.000000 0.000000 0.000000
vn 1.000000 -0.000001 -0.000000
vn 1.000000 -0.000001 -0.000000
vn 0.000000 0.000000 1.000000
vn 0.000000 0.000000 1.000000
vn 0.000000 0.000000 1.000000
vn 0.000000 0.000000 1.000000
vn 0.000000 0.000000 -1.000000
vn 0.000000 0.000000 -1.000000
vn 0.000000 0.000000 -1.000000
vn 0.000000 0.000000 -1.000000
vn 0.000000 0.000000 -1.000000
vn 0.000000 0.000000 -1.000000
vn -0.000000 -0.000000 -1.000000
vn 0.000000 0.000000 -1.000000
vn 0.000000 0.000000 -1.000000
vn 1.000000 0.000000 0.000001
vn 1.000000 0.000000 0.000001
vn 0.000000 0.000000 1.000000
vn 0.000000 0.000000 1.000000
vn 0.000000 0.000000 1.000000
vn 0.000000 0.000000 -1.000000
vn 0.000000 0.000000 -1.000000
vn 0.000000 0.000000 -1.000000
vn 0.000000 0.000000 -1.000000
vn 0.000000 0.000000 -1.000000
vn 0.000000 0.000000 -1.000000
vn 0.000000 0.000000 -1.000000
vn 0.000000 0.000000 -1.000000
vn -0.000000 -0.000000 -1.000000
vn -0.000000 -0.000000 -1.000000
vn 0.000000 0.000000 -1.000000
vn 1.000000 -0.000000 0.000002
vn 1.000000 -0.000000 0.000002
vn -0.000000 0.000000 1.000000
vn -0.000000 0.000000 1.000000
vn 0.000000 -0.000000 -1.000000
vn -0.000000 -0.000000 -1.000000
vn 0.000000 -0.000000 -1.000000
vn 1.000000 -0.000000 0.000001
vn 1.000000 -0.000000 0.000001
vn -0.000000 0.000000 1.000000
vn -0.000000 0.000000 -1.000000
vn 0.000000 -0.000000 -1.000000
vn 0.000000 -0.000000 -1.000000
vn 0.000000 -0.000000 -1.000000
vn 0.000000 -0.000000 -1.000000
vn 0.000000 0.000000 -1.000000
vn 1.000000 0.000001 0.000000
vn 1.000000 0.000001 0.000000
vn -0.000000 0.000000 -1.000000
vn -0.000000 0.000000 -1.000000
vn -0.000000 0.000000 -1.000000
vn -0.000000 0.000000 -1.000000
vn -0.000000 -0.558780 0.829316
vn -0.000000 -0.558780 0.829316
vn -0.000000 -0.558780 0.829316
vn -0.000000 -0.558780 0.829316
vn 0.000000 -0.558780 0.829316
vn 0.000000 -0.558780 0.829316
vn 0.000000 -0.558780 0.829316
vn 0.000000 -0.558780 0.829316
vn -0.000000 -0.558780 0.829316
vn -0.000000 -0.558780 0.829316
vn -0.000000 -0.558780 0.829316
vn -0.000000 -0.558780 0.829316
vn 0.000000 -0.558780 0.829316
vn 0.000000 -0.558780 0.829316
vn 0.000000 -0.558780 0.829316
vn 0.000000 -0.558780 0.829316
vn 0.000000 -0.558780 0.829316
vn 0.000000 -0.558780 0.829316
vn 0.000000 -0.558780 0.829316
vn 0.000000 -0.558780 0.829316
vn 0.000002 0.852447 0.522813
vn 0.000002 0.852447 0.522813
vn 0.000002 0.852447 0.522813
vn 0.000002 0.852447 0.522813
vn 0.000000 0.852448 0.522812
vn 0.000000 0.852448 0.522812
vn 0.000000 0.852448 0.522812
vn 0.000000 0.852448 0.522812
vn -0.000000 0.852448 0.522812
vn -0.000000 0.852448 0.522812
vn -0.000000 0.852448 0.522812
vn -0.000000 0.852448 0.522812
vn -0.000000 0.852448 0.522812
vn -0.000000 0.852448 0.522812
vn -0.000000 0.852448 0.522812
vn -0.000000 0.852448 0.522812
vn 0.000001 0.852449 0.522811
vn 0.000001 0.852449 0.522811
vn 0.000001 0.852449 0.522811
vn 0.000001 0.852449 0.522811
s 1
g pCube2
usemtl initialShadingGroup
f 19/249/1 20/250/2 21/251/3 22/252/4
s 2
f 23/43/5 19/1/6 22/253/7 24/254/8
s 3
f 23/57/9 25/344/10 20/345/11 19/60/12
s 1
f 20/2/2 26/255/13 27/256/14 21/257/3
f 22/258/4 21/259/3 28/260/15 29/261/16
s 4
f 24/152/17 30/153/18 25/154/19 23/72/20
s 2
f 24/46/8 22/4/7 29/262/21 31/263/22
s 3
f 25/58/10 32/346/23 26/347/24 20/59/11
s 1
f 26/5/13 33/264/25 34/265/26 27/266/14
f 21/3/3 27/267/14 35/268/27 28/269/15
f 29/270/16 28/271/15 36/272/28 37/273/29
s 4
f 31/155/30 38/156/31 30/157/18 24/69/17
f 30/158/18 39/159/32 32/160/33 25/71/19
s 2
f 31/48/22 29/8/21 37/274/34 40/275/35
s 3
f 32/61/23 41/348/36 33/349/37 26/62/24
s 1
f 33/9/25 42/276/38 43/277/39 34/278/26
f 27/6/14 34/279/26 44/280/40 35/281/27
f 28/7/15 35/282/27 45/283/41 36/284/28
f 37/285/29 36/286/28 46/287/42 47/288/43
s 4
f 40/161/44 48/162/45 38/163/31 31/73/30
f 38/164/31 49/165/46 39/166/32 30/70/18
f 39/167/32 50/168/47 41/169/48 32/76/33
s 2
f 40/50/35 37/13/34 47/289/49 51/290/50
s 3
f 41/63/36 52/350/51 42/351/52 33/64/37
s 1
f 42/14/38 53/20/53 54/291/54 43/292/39
f 34/10/26 43/293/39 55/294/55 44/295/40
f 35/11/27 44/296/40 56/297/56 45/298/41
f 36/12/28 45/299/41 57/300/57 46/301/42
f 47/302/43 46/303/42 58/304/58 59/305/59
s 4
f 51/170/60 60/171/61 48/172/45 40/77/44
f 48/173/45 61/174/62 49/175/46 38/74/31
f 49/176/46 62/177/63 50/178/47 39/75/32
f 50/179/47 63/180/64 52/181/65 41/81/48
s 2
f 51/52/50 47/19/49 59/306/66 64/307/67
s 3
f 52/65/51 65/67/68 53/68/69 42/66/52
s 5
f 53/128/70 65/182/71 66/183/72 54/184/73
s 1
f 43/15/39 54/21/54 67/308/74 55/309/55
f 44/16/40 55/310/55 68/311/75 56/312/56
f 45/17/41 56/313/56 69/314/76 57/315/57
f 46/18/42 57/316/57 70/317/77 58/318/58
f 59/319/59 58/320/58 71/321/78 72/322/79
s 4
f 64/185/80 73/186/81 60/187/61 51/82/60
f 60/188/61 74/189/82 61/190/62 48/78/45
f 61/191/62 75/192/83 62/193/63 49/79/46
f 62/194/63 76/195/84 63/196/64 50/80/47
f 63/197/64 66/198/85 65/94/86 52/87/65
s 2
f 64/54/67 59/26/66 72/32/87 77/56/88
s 5
f 54/131/73 66/199/72 78/200/89 67/201/90
s 1
f 55/22/55 67/27/74 79/323/91 68/324/75
f 56/23/56 68/325/75 80/326/92 69/327/76
f 57/24/57 69/328/76 81/329/93 70/330/77
f 58/25/58 70/331/77 82/332/94 71/31/78
s 4
f 77/95/95 83/96/96 84/97/97 85/98/98 86/202/99 73/203/81 64/88/80
f 73/204/81 87/205/100 74/206/82 60/83/61
f 74/207/82 88/208/101 75/209/83 61/84/62
f 75/210/83 89/211/102 76/212/84 62/85/63
f 76/213/84 78/214/103 66/93/85 63/86/64
s 5
f 67/133/90 78/215/89 90/216/104 79/217/105
s 1
f 68/28/75 79/33/91 91/333/106 80/334/92
f 69/29/76 80/335/92 92/336/107 81/337/93
f 70/30/77 81/338/93 93/339/108 82/36/94
s 4
f 94/218/109 87/219/100 73/89/81 86/99/99 95/105/110 96/106/111 97/107/112
f 87/220/100 98/221/113 99/109/114 100/110/115 101/222/116 102/223/117 88/224/101 74/90/82
f 88/225/101 103/226/118 89/227/102 75/91/83
f 89/228/102 90/229/119 78/103/103 76/92/84
s 5
f 79/135/105 90/230/104 104/231/120 91/232/121
s 1
f 80/34/92 91/37/106 105/340/122 92/341/107
f 81/35/93 92/342/107 106/343/123 93/39/108
s 4
f 98/108/113 87/100/100 94/104/109
f 107/233/124 102/234/117 101/111/116
f 102/235/117 108/236/125 103/237/118 88/101/101
f 103/238/118 104/239/126 90/114/119 89/102/102
s 5
f 91/137/121 104/240/120 109/241/127 105/242/128
s 1
f 92/38/107 105/40/122 110/42/129 106/41/123
s 4
f 111/243/130 108/244/125 102/112/117 107/115/124 112/119/131 113/120/132 114/121/133 115/122/134
f 108/245/125 109/246/135 104/117/126 103/113/118
s 5
f 105/139/128 109/247/127 116/248/136 110/141/137
s 4
f 117/124/138 116/125/139 109/123/135 108/116/125 111/118/130 118/126/140 119/127/141
s off
f 2/142/142 1/143/143 7/144/144 8/145/145
f 1/143/146 3/146/147 9/147/148 7/144/149
f 3/146/150 4/148/151 10/149/152 9/147/153
f 4/148/154 5/150/155 11/151/156 10/149/157
f 5/150/158 6/55/159 12/53/160 11/151/161
f 8/51/162 7/352/163 13/353/164 14/45/165
f 7/49/166 9/354/167 15/355/168 13/47/169
f 9/44/170 10/356/171 16/357/172 15/140/173
f 10/138/174 11/358/175 17/359/176 16/136/177
f 11/134/178 12/130/179 18/129/180 17/132/181
